HIERARCHY
ROOT Spine
{
    OFFSET 0.0 0.0 -0.0
    CHANNELS 6 Xposition Yposition Zposition Zrotation Xrotation Yrotation
    JOINT ShoulderCenter
    {
        OFFSET 0.0 28.435182571411133 0.0
        CHANNELS 3 Zrotation Xrotation Yrotation
        JOINT LeftShoulder
        {
            OFFSET 18.452661514282227 0.0 0.0
            CHANNELS 3 Zrotation Xrotation Yrotation
            JOINT LeftElbow
            {
                OFFSET 29.938873291015625 0.0 0.0
                CHANNELS 3 Zrotation Xrotation Yrotation
                JOINT LeftHand
                {
                    OFFSET 31.802392959594727 0.0 0.0
                    CHANNELS 3 Zrotation Xrotation Yrotation
                    End Site
                    {
                        OFFSET 12.720956802368164 0.0 0.0
                    }
                }
            }
        }
        JOINT RightShoulder
        {
            OFFSET -18.452661514282227 0.0 0.0
            CHANNELS 3 Zrotation Xrotation Yrotation
            JOINT RightElbow
            {
                OFFSET -29.938873291015625 0.0 0.0
                CHANNELS 3 Zrotation Xrotation Yrotation
                JOINT RightHand
                {
                    OFFSET -31.802392959594727 0.0 0.0
                    CHANNELS 3 Zrotation Xrotation Yrotation
                    End Site
                    {
                        OFFSET -12.720956802368164 0.0 0.0
                    }
                }
            }
        }
        End Site
        {
            OFFSET 0.0 11.374073028564453 0.0
        }
    }
    JOINT LeftHip
    {
        OFFSET 15.881223837921777 -15.881223837921777 0.0
        CHANNELS 3 Zrotation Xrotation Yrotation
        JOINT LeftKnee
        {
            OFFSET 0.0 -39.30992126464844 0.0
            CHANNELS 3 Zrotation Xrotation Yrotation
            JOINT LeftFoot
            {
                OFFSET 0.0 -44.4995231628418 0.0
                CHANNELS 3 Zrotation Xrotation Yrotation
                End Site
                {
                    OFFSET 0.0 0.0 17.799808502197266
                }
            }
        }
    }
    JOINT RightHip
    {
        OFFSET -15.881223837921777 -15.881223837921777 0.0
        CHANNELS 3 Zrotation Xrotation Yrotation
        JOINT RightKnee
        {
            OFFSET 0.0 -39.30992126464844 0.0
            CHANNELS 3 Zrotation Xrotation Yrotation
            JOINT RightFoot
            {
                OFFSET 0.0 -44.4995231628418 0.0
                CHANNELS 3 Zrotation Xrotation Yrotation
                End Site
                {
                    OFFSET 0.0 0.0 17.799808502197266
                }
            }
        }
    }
}
MOTION
Frames: 12
Frame Time: 0.03333333333333333
4.800000190734863 8.299999237060547 51.79999923706055 -1.201832838154956 -1.6019076319037655 1.043864897418621 -3.372891770656177e-08 1.6142229597363267e-07 -2.731774342921488 87.7130648267626 4.326309343122672 160.69006031724592 5.80893737929179e-06 3.4220830568610655e-06 63.06823046958356 0.0 0.0 3.1805546814635164e-15 -90.44349299014064 3.152856118009074 -156.90200476524566 -1.8840213943620278e-06 -5.30238264215771e-07 -73.53876325931154 7.95138670365879e-15 3.1805546814635156e-15 -3.1805546814635164e-15 3.8230925357893963 13.552300536901122 -46.53600168475488 10.841569438545823 -12.861433113264756 38.06619584715459 -1.987846675914698e-16 2.155227684594804e-34 -1.2424041724466862e-16 -0.48642667472292334 7.3334892261584885 22.632591131215776 -5.917286397455454 -8.285795451493275 -14.793491998086969 -7.951386703658792e-16 -2.069018577211012e-33 2.981770013872047e-16
4.900000095367432 8.199999809265137 51.79999923706055 -0.9980834943148963 -1.5964380202156587 1.04933489568342 -2.1766145868003934e-09 -1.1466929821282669e-07 -2.564436416677909 87.22906182416463 4.548969389679117 160.9544200840565 -8.296158485025882e-07 5.005689950747771e-06 64.03234150916347 1.5902773407317584e-15 3.1805546814635168e-15 -4.4139062980501586e-32 -90.10052012172225 2.8741989369190537 -156.39704724754415 9.626517012592142e-07 -4.433227394816106e-06 -77.86226792008189 0.0 3.1805546814635168e-15 0.0 3.462084598043195 13.554955359848368 -46.18866934403836 10.884980822261893 -12.820446546170364 37.70561930527458 3.6335791744965524e-33 -8.075627120903463e-16 5.155977315653749e-16 -0.8355874549243058 7.05647899624537 22.31426117332163 -5.693600202800039 -7.9520557579606015 -14.153132413780657 -1.4224502718325707e-32 -7.454425034680117e-16 -2.1866313435061676e-15
4.900000095367432 8.199999809265137 51.70000076293945 -0.7984951234703322 -1.197535270473704 1.003932031771022 -3.997371531654471e-08 4.595263170371129e-08 -2.1786969299118804 87.11449247511717 3.9456733413499174 161.71765306941288 6.680534555415256e-07 4.870859140207606e-07 64.95008377394348 -1.7655625192200634e-31 3.1805546814635168e-15 6.3611093629270335e-15 -90.17301056286169 1.1330823375378813 -157.01931935919634 -3.6953507485906275e-06 8.223515088530144e-08 -81.3959689582888 6.3611093629270335e-15 0.0 0.0 3.2380366264543414 13.163305171270226 -46.49500149519679 11.056977059736234 -12.830484559346566 37.713737580357545 1.9878466759146985e-16 1.2424041724466865e-17 2.5469285535157073e-16 -1.052304741344647 6.382860948086495 22.40633053403325 -5.534411462675118 -7.576561357141009 -13.43483881956282 5.926876132635711e-34 -4.9696166897867443e-17 1.3666445896913546e-15
4.900000095367432 8.199999809265137 51.599998474121094 -0.8012866526539508 -1.0014746805416521 -0.14926139261982296 8.057943114755469e-08 1.138621574684516e-07 -1.1685124739044073 87.07260652851622 3.314367122963712 162.17504232478638 -2.6103281701576397e-06 -5.254042134595703e-07 65.73325457150024 0.0 0.0 3.1805546814635168e-15 -90.39306932753931 -2.322005778444929 -158.99651428112998 -1.1198495027709898e-06 1.5666335164063166e-06 -84.47392220479396 -6.3611093629270335e-15 -6.3611093629270335e-15 -3.1805546814635168e-15 3.276269352127127 12.846764958280403 -46.0333198721971 11.083859444599442 -12.80031820487198 38.77520971027128 0.0 0.0 8.137747329525793e-16 -1.1695841336553614 5.180729286439126 20.494005846848363 -5.04703073236502 -6.964009507207709 -12.509331462300924 0.0 0.0 3.2302508483613845e-16
5.0 8.199999809265137 51.400001525878906 -0.6009821551487756 -0.6009557159552756 -1.055047342241699 5.327679263749609e-08 5.7410296565756246e-08 -0.24083187107935572 87.10008115248813 2.0803684287590642 162.95025173545127 -1.8717359042637963e-07 2.414701651872552e-06 66.27502266525563 6.3611093629270335e-15 -3.1805546814635168e-15 1.7655625192200634e-31 -91.4003694257756 -6.017658907508798 -162.48739814067142 -1.4086585462539573e-06 9.704286781213954e-07 -87.57530058918074 3.1805546814635168e-15 0.0 0.0 2.8741648482428714 12.343989615262794 -46.03445450373037 11.189997524476533 -12.343756675742137 37.78071320206534 0.0 0.0 2.254963572990735e-15 -1.4333987109430966 4.201537811343845 20.013099609915805 -4.812721682985723 -6.516841952843348 -11.655399920879264 0.0 0.0 6.460501696722769e-16
5.200000286102295 8.399999618530273 51.30000305175781 -0.20033293210004732 -0.4006699732779045 0.6281352337867373 1.0199665396086247e-08 2.2355238032213302e-08 -2.2198980251570943 86.92124426927208 1.0115992597767658 163.4071240777885 -1.279342883645516e-06 4.343169002292335e-06 67.07850032028341 3.1805546814635164e-15 3.1805546814635164e-15 -8.827812596100317e-32 -92.97069139086473 -10.48807870158504 -167.6128637522352 1.6020084690348967e-06 -1.7547827606776154e-06 -89.09654500772105 9.541664044390547e-15 0.0 0.0 2.1963173707516583 11.291536532606234 -44.004999155790244 10.488817632918844 -12.286140719785672 35.91009785648056 1.9878466759146985e-16 2.586273221513765e-34 1.490885006936024e-16 -2.262794275033216 4.745173835388216 22.310024687989586 -5.366145061684094 -7.160103473936087 -13.201333139714183 0.0 0.0 -1.9878466759146985e-16
5.200000286102295 8.399999618530273 51.099998474121094 -0.4006628935512273 1.466568276456567e-10 -1.1389365277464092 -3.937156870882938e-09 3.3329459316409857e-10 -0.7550131067498105 87.73480501401615 -0.937545791030588 164.14487897032274 -3.960381320052164e-06 3.385048728463737e-06 67.66681191238153 -3.1805546814635168e-15 -8.827812596100317e-32 3.1805546814635168e-15 -94.6406257024326 -14.376779929673006 -174.09823649469556 4.342192917587198e-06 -2.491539080112362e-06 -89.36982519442573 7.062250076880254e-31 -6.361109362927032e-15 1.2722218725854064e-14 2.205762475058483 11.13889585303144 -43.85044130174673 10.78207879679917 -12.142142786399601 35.75353243247474 -1.9878466759146977e-16 5.38806921148701e-34 -3.106010431116715e-16 -2.0398315583832587 3.3073305049946793 20.672032634543122 -4.7601235919885205 -6.618550796663226 -12.19782619897558 0.0 0.0 7.20594420019078e-16
5.099999904632568 8.399999618530273 51.0 -0.6009830025481124 1.0301449560477634e-09 -2.5475295865551275 -2.7791903403313136e-09 -4.1962739505103524e-10 0.8110682998824541 88.49981472618472 -3.0255185986172934 164.9473496325231 -1.5423271515599772e-06 1.1928179474622164e-07 67.99053426152732 1.5902773407317582e-15 0.0 0.0 -95.7474857266727 -16.699209148833333 179.8200196210424 3.4206270164483503e-06 -1.988636495753298e-06 -88.03588600575013 7.062250076880254e-31 -6.3611093629270335e-15 1.2722218725854067e-14 2.121183853190977 11.348615655464764 -42.61412716363965 10.772900107817287 -12.048571618276451 34.774707021623556 0.0 0.0 -4.0999337690740637e-16 -1.7624822402405065 2.8543707782880543 19.584575446687452 -4.659826110721031 -6.578319734229133 -12.300476148183467 3.340602911121946e-34 -4.969616689786745e-17 7.702905869169454e-16
5.099999904632568 8.299999237060547 50.900001525878906 -0.6009830217198607 -7.415248676631608e-10 -3.411616030504717 2.5922494591539022e-08 2.162430179895429e-09 1.6752168606434839 88.92176391273445 -4.777649761593277 165.51636920106287 2.3889292114714622e-06 1.317507983170551e-07 68.60311466874583 4.770832022195274e-15 -3.972515668245143e-31 -9.541664044390549e-15 -96.58053442953835 -18.374030978219256 173.7995988279921 -2.240184498102767e-06 -1.2468978374007361e-06 -84.54183865644421 0.0 0.0 0.0 2.2405740076390326 11.69481207463784 -43.39559852498793 11.079566410334806 -12.104059278836072 35.953892617630515 -1.2586529678033654e-32 -7.951386703658791e-16 -1.8139100917721617e-15 -1.7746415524765895 2.4044754702215956 18.241975235780387 -4.115453976436169 -6.655632373697345 -12.147353408657487 0.0 0.0 -3.9756933518293955e-16
5.0 8.299999237060547 50.900001525878906 -0.8012876631854927 -0.4006180158797929 -4.205564266458316 2.9770786344230554e-08 -1.911108548439127e-09 2.765691799638292 89.40902960729197 -6.673481475753306 166.06192476692644 4.1692470172579025e-07 2.0755704761755833e-06 68.95521032454263 -3.1805546814635168e-15 3.1805546814635168e-15 3.1805546814635168e-15 -96.79150738587535 -19.55950335778119 169.0537728613364 -4.7630446534991783e-07 -2.633837001938644e-06 -79.49626946171796 6.3611093629270335e-15 0.0 0.0 2.5436749726594536 12.488779941904282 -44.04281421127922 11.088112843880966 -12.335714118510182 36.8410216135429 0.0 0.0 6.522621905345102e-16 -1.4786089968941194 2.5267822091879317 17.035473481147505 -3.8552688809260416 -6.647547625947318 -11.95673229042557 -7.951386703658794e-16 8.013506912281128e-16 5.5604874262545944e-33
4.900000095367432 8.299999237060547 50.80000305175781 -1.0050859953094675 -0.4020163956458882 -4.772426581251848 -4.005228406881779e-08 -1.8157548834878082e-08 3.489838582570021 89.52464025964277 -8.264042162712373 166.3937092008796 -3.2079717305707496e-06 -1.7574833974814753e-06 70.27697379422094 -4.770832022195275e-15 -6.3611093629270335e-15 -2.648343778830095e-31 -96.62451849026742 -20.35548069690872 164.60251581671685 2.6081468192122785e-06 2.134738807997339e-06 -73.23705925492938 -3.1805546814635164e-15 0.0 0.0 2.7727936542280753 12.511149319881513 -43.668832228164014 11.114985997887093 -12.297485799610353 37.0274644039235 -1.987846675914698e-16 1.1207183959892982e-33 -6.460501696722769e-16 -1.1385445401113068 2.264890239453427 16.194081728445404 -3.770308649084272 -6.440253178032102 -11.6354865272034 7.951386703658791e-16 -7.765026077791788e-19 5.38806921148701e-36
4.800000190734863 8.199999809265137 50.70000457763672 -1.2018329031938335 -0.2003022338256614 -4.512643662662047 -1.763080895920032e-09 6.420657630912604e-09 3.3966826389707787 89.38522571815756 -9.459484464302209 166.99443381563754 -6.453198664708088e-07 7.718964559140068e-07 71.9117914497959 6.3611093629270335e-15 -1.7655625192200634e-31 -3.1805546814635168e-15 -96.54261940533996 -21.123358565144265 160.85316466501666 8.224814607435035e-07 1.5720348191215155e-07 -66.54428700406443 6.3611093629270335e-15 0.0 0.0 3.0578368377822502 12.19554154014603 -43.421420612534014 11.18576548125189 -12.384806892756073 37.87390203758295 1.987846675914698e-16 3.0604233121246217e-33 1.7642139248742944e-15 -0.9160900360643932 2.0844679923146727 15.910353154605207 -3.6568095403729943 -6.582840134435149 -11.761606898601954 -1.7241821476758432e-34 7.951386703658791e-16 2.4848083448933722e-17
